<?xml version="1.0" encoding="UTF-8" standalone="no"?>
<!-- Created with Inkscape (http://www.inkscape.org/) -->

<svg
   width="99.258446mm"
   height="26.992685mm"
   viewBox="0 0 99.258446 26.992685"
   version="1.1"
   id="svg1"
   xml:space="preserve"
   inkscape:export-filename="zsl_logo.svg"
   inkscape:export-xdpi="96"
   inkscape:export-ydpi="96"
   xmlns:inkscape="http://www.inkscape.org/namespaces/inkscape"
   xmlns:sodipodi="http://sodipodi.sourceforge.net/DTD/sodipodi-0.dtd"
   xmlns="http://www.w3.org/2000/svg"
   xmlns:svg="http://www.w3.org/2000/svg"><sodipodi:namedview
     id="namedview1"
     pagecolor="#505050"
     bordercolor="#ffffff"
     borderopacity="1"
     inkscape:showpageshadow="0"
     inkscape:pageopacity="0"
     inkscape:pagecheckerboard="1"
     inkscape:deskcolor="#505050"
     inkscape:document-units="mm" /><defs
     id="defs1" /><g
     inkscape:label="Warstwa 1"
     inkscape:groupmode="layer"
     id="layer1"
     transform="translate(-44.768872,-135.932)"><path
       style="fill:#163e5e;fill-opacity:1;stroke:#000000;stroke-width:0.223;stroke-linecap:round;stroke-linejoin:round;stroke-opacity:0"
       d="m 71.101187,162.81318 25.915956,-0.061 -26.15987,-13.41531 13.29336,-0.061 26.037917,-13.04945 -25.91596,-0.18293 -26.708679,13.35433 -12.683572,0.12196 z"
       id="path24" /><path
       style="fill:#163e5e;fill-opacity:1;stroke:#000000;stroke-width:0.388497;stroke-linecap:round;stroke-linejoin:round;stroke-opacity:0"
       d="m 377.90272,565.34476 c 0.61328,2.25192 -1.66642,7.48727 2.14356,6.75298 12.8147,0.18011 25.66429,-0.37043 38.4589,0.31509 1.36263,0.18811 1.29871,1.69052 0.57618,2.49647 0.008,1.38619 -0.43998,2.34939 -1.2991,3.38234 -0.75086,2.01146 -2.93823,2.607 -4.68324,3.21218 -1.78693,1.14684 -4.62766,0.31379 -6.78088,0.59599 -3.24959,-0.91951 -4.0654,1.1116 -3.51558,3.95401 -0.11375,1.41424 0.27478,3.48055 2.20388,2.97271 3.21578,-0.20185 6.82003,0.22886 9.80581,-0.96779 0.84857,-0.41753 2.15305,-0.16986 2.6189,-1.14876 1.29988,0.30988 1.41911,-1.12248 2.50907,-1.11184 2.92028,-1.58058 3.96407,-5.14195 5.92292,-7.4939 0.0792,-2.4582 1.36854,-4.59702 1.02902,-7.15359 -0.50838,-2.00019 1.45845,-6.48175 -1.67362,-6.10568 -15.67201,0 -31.34402,0 -47.01603,0 z"
       id="path25"
       transform="scale(0.26458333)" /><path
       style="fill:#163e5e;fill-opacity:1;stroke:#000000;stroke-width:0.388497;stroke-linecap:round;stroke-linejoin:round;stroke-opacity:0"
       d="m 396.15222,590.40126 c -3.44443,0.35062 -7.45426,0.30447 -10.34237,2.39473 -0.78559,0.6282 -2.26173,0.90541 -2.9142,2.01752 -1.99002,1.98732 -3.4102,4.61323 -4.75886,6.93753 -0.22628,4.05387 -0.55285,8.43746 0.0657,12.29237 16.13295,0 32.26591,0 48.39886,0 0.0135,-1.92953 1.72002,-7.29263 -1.38283,-7.05276 -13.42102,0 -26.84204,0 -40.26306,0 -0.008,-1.69095 -0.26645,-3.57576 0.90658,-4.79847 0.95978,-3.61002 5.17914,-4.62125 8.4689,-4.59952 2.00794,-0.70517 6.20842,0.96569 6.56725,-1.5809 0.0209,-2.61255 1.36272,-6.90037 -2.8329,-5.61501 -0.63769,0.003 -1.27544,-0.006 -1.91309,0.005 z"
       id="path26"
       transform="scale(0.26458333)" /><path
       style="fill:#163e5e;fill-opacity:1;stroke:#000000;stroke-width:0.388497;stroke-linecap:round;stroke-linejoin:round;stroke-opacity:0"
       d="m 458.35682,565.05307 c -3.17408,0.2736 -6.69296,-0.39019 -9.69148,0.6365 -4.45198,0.78046 -7.87422,4.46131 -10.40629,8.02506 -0.56657,1.53636 -1.80309,2.64785 -1.67237,4.48119 -0.39361,2.14205 -0.94584,4.46775 0.23463,6.41846 -0.11533,1.49882 0.39798,2.65341 1.3315,3.72894 1.50746,2.6345 3.54709,5.34944 6.23982,6.80069 0.53953,0.39228 0.98714,1.16982 1.9374,0.98761 4.10513,2.01486 9.03194,0.83639 13.45373,1.318 0.0231,-1.90835 1.71564,-7.11491 -1.36134,-6.98405 -3.0925,-0.37022 -6.52238,0.11158 -9.42668,-0.95009 -1.33762,-0.62355 -2.8371,-1.17752 -3.65242,-2.63511 -1.99417,-2.55643 -1.44895,-6.21764 -1.06863,-9.21342 0.73527,-1.74448 2.01957,-3.42856 3.74155,-4.10977 0.91658,-1.39659 3.42308,-0.68563 4.88603,-1.06477 6.02285,-0.11566 12.29017,-0.68586 18.17995,0.005 1.1741,0.83176 3.0368,0.54417 3.97292,1.89688 1.84137,1.52598 2.7653,3.81445 3.13207,6.05256 1.97479,0.90697 4.38279,0.13415 6.49279,0.40873 1.35374,-4.67005 -2.46833,-9.20925 -5.79958,-12.20145 -1.60121,-1.61489 -3.81799,-2.59397 -5.91302,-2.97541 -2.85924,-1.02155 -6.28562,-0.3555 -9.33766,-0.6257 -1.75765,-0.009 -3.51527,-0.009 -5.27292,0 z"
       id="path27"
       transform="scale(0.26458333)" /><path
       style="fill:#163e5e;fill-opacity:1;stroke:#000000;stroke-width:0.388497;stroke-linecap:round;stroke-linejoin:round;stroke-opacity:0"
       d="m 461.79407,582.3996 c 0.45332,1.97058 -0.8551,4.84245 0.81385,6.37126 3.67924,0.97807 7.87778,-1.03403 11.1666,1.57784 1.20751,0.51688 2.23302,1.31907 2.73907,2.44369 1.52241,1.48181 1.18227,4.30148 1.47645,6.30824 0.31644,1.47675 -0.51859,2.5895 -0.9849,3.81627 -0.18766,1.49652 -1.66568,2.05676 -2.72063,2.66302 -1.77658,1.94143 -5.05399,0.85024 -7.39487,1.3288 -5.94906,0.0414 -12.04119,0.40158 -17.9056,-0.29889 -1.01919,-0.7856 -2.56832,-1.04769 -3.34093,-2.35062 -0.8433,-0.70209 -0.64139,-2.03096 -1.56648,-2.53968 0.42417,-2.80394 -1.72123,-2.85895 -4.10796,-2.56489 -0.96072,0.27803 -3.70047,-0.60662 -3.64882,0.92099 1.00154,1.38789 0.12952,3.46263 1.66731,4.5581 1.38382,2.91763 3.419,5.66112 6.37756,7.04826 1.15121,1.05177 2.69614,1.36477 3.88379,2.05083 8.45634,0.41736 16.99896,0.55458 25.43641,-0.0981 1.41143,-1.01962 3.39608,-1.3283 4.68684,-2.70623 2.99102,-1.27205 4.37433,-4.77246 5.91122,-7.44619 1.46712,-4.4713 1.27799,-9.86765 -1.66822,-13.74092 -3.07398,-5.08075 -8.93778,-8.20038 -14.88964,-7.63552 -1.93074,0.15886 -4.21885,-0.38144 -5.93105,0.29377 z"
       id="path28"
       transform="scale(0.26458333)" /><path
       style="fill:#163e5e;fill-opacity:1;stroke:#000000;stroke-width:0.388497;stroke-linecap:round;stroke-linejoin:round;stroke-opacity:0"
       d="m 494.96116,565.34746 c 0.22836,12.3944 -0.0771,24.82087 0.71301,37.19312 1.53366,3.58437 3.93881,7.28132 7.42278,9.17742 1.09401,0.2152 1.56761,1.76716 2.97362,1.43414 2.26519,1.34739 5.46715,0.44693 8.06827,0.82465 9.84674,0.11924 19.69449,0.0462 29.54167,0.0666 0.0135,-1.92953 1.72003,-7.29263 -1.38282,-7.05276 -11.43006,-0.1583 -22.93305,0.35248 -34.32214,-0.38982 -0.58112,-0.81168 -1.87734,-0.25509 -2.17327,-1.34231 -2.35467,-0.47727 -2.46418,-3.37187 -3.29411,-5.08296 -0.82737,-7.30016 -0.30259,-14.95946 -0.47354,-22.38628 -0.19875,-4.20717 0.39824,-8.74395 -0.2998,-12.74431 -2.17555,0.24003 -4.81923,-0.44466 -6.77367,0.30249 z"
       id="path29"
       transform="scale(0.26458333)" /><path
       style="fill:#163e5e;fill-opacity:1;stroke:#000000;stroke-width:0.388497;stroke-linecap:round;stroke-linejoin:round;stroke-opacity:0"
       d="m 522.36917,582.10341 c -1.26602,-0.22333 -2.89432,0.22313 -2.53878,1.81496 -0.47117,1.82494 -1.34827,3.91647 -3.13566,4.60851 -1.1464,1.6784 -4.83627,0.86867 -4.62742,3.5813 0.20617,1.93962 -1.16119,5.78664 2.11295,4.8804 1.22161,0.22835 2.25822,-0.31248 3.05643,-0.92188 3.5751,-1.2668 6.18319,-4.55302 8.29695,-7.59294 0.34578,-0.90709 0.5209,-1.59548 1.17846,-2.20297 0.16864,-1.54845 1.11139,-4.82568 -1.46925,-4.17098 -0.9579,2.9e-4 -1.91579,-0.002 -2.87368,0.004 z"
       id="path30"
       transform="scale(0.26458333)" /></g></svg>
